<?xml version="1.0" encoding="UTF-8" standalone="no"?>
<svg
        id="pathfinder_logo"
        version="1.1"
        width="394.79974"
        height="97.695251"
        viewBox="0 0 394.79974 97.695254"
        xmlns="http://www.w3.org/2000/svg"
        xmlns:svg="http://www.w3.org/2000/svg">

    <g

            transform="translate(-3.1652519,-3.011254)">
        <path
                id="path1"
                d="m 24.125417,3.1887861 c -2.421,0.53 -3.963,1.714 -6.304,4.84 -1.793,2.3949999 -5.915,6.5269959 -7.713,7.7309959 -1.5929996,1.067 -3.2069996,3.319 -3.5959996,5.019 -0.645,2.815 0.227,4.925 3.278,7.929 1.0319996,1.015 1.8749996,1.971 1.8749996,2.124 0,0.335 -0.439,0.543 -5.3329996,2.532 -1.513,0.614 -2.844,1.193 -2.958,1.286 -0.162,0.132 -0.209,2.067 -0.209,8.649 0,9.102 -0.032,8.763 0.794,8.327 0.36,-0.19 0.843,-0.398 3.873,-1.672 2.7259996,-1.146 2.7209996,-1.144 4.0649996,-1.75 1.35,-0.609 1.362,-0.596 1.584,1.686 0.105,1.085 0.232,2.385 0.283,2.889 0.05,0.504 0.163,1.779 0.251,2.833 0.088,1.054 0.236,2.742 0.328,3.75 0.092,1.008 0.205,2.658 0.252,3.667 l 0.084,1.833 -0.787,0.583 c -0.433,0.321 -1.621,1.409 -2.639,2.417 -1.019,1.008 -2.3989996,2.352 -3.0679996,2.987 -1.012,0.96 -3.186,3.819 -3.186,4.189 0,0.058 -0.15,0.316 -0.333,0.572 -0.361,0.508 -0.379,0.413 0.449,2.335 1.133,2.632 1.322,2.862 7.0089996,8.583 l 1.541,1.55 v 1.176 c 0,2.276 0.827,3.556 4.429,6.858 0.55,0.504 1.259,1.24 1.577,1.635 1.727,2.147 4.596,3.317998 7.012,2.861998 0.64,-0.121 1.203,-0.282 1.25,-0.358 0.047,-0.077 0.195,-0.139 0.329,-0.139 0.491,0 1.695,-0.933998 3.422,-2.653998 0.973,-0.97 2.439,-2.4 3.258,-3.179 1.998,-1.901 3.011,-4.146 2.637,-5.848 -0.11,-0.5 -0.014,-0.629 1.204,-1.607 0.368,-0.296 0.999,-0.97 1.401,-1.498 0.402,-0.527 1.106,-1.308 1.565,-1.735 0.458,-0.426 1.104,-1.028 1.435,-1.336 0.943,-0.877 1.731,-2.014 2.447,-3.527 1.134,-2.398 1.144,-2.448 0.652,-3.228 -0.735,-1.164 -0.688,-1.299 0.466,-1.341 3.02,-0.11 7.575,-1.123 9.311,-2.071 0.665,-0.363 0.679,0.11 0.061,1.973 -0.574,1.729 -0.596,2.218 -0.103,2.218 0.134,0 0.697,0.25 3.662,1.626 5.036,2.339 4.338,2.171 6.179,1.489 0.856,-0.317 1.856,-0.676 2.223,-0.797 0.367,-0.121 0.738,-0.279 0.825,-0.352 0.087,-0.073 0.294,-0.133 0.461,-0.133 0.166,0 0.432,-0.072 0.591,-0.159 0.159,-0.088 1.265,-0.505 2.456,-0.926 1.192,-0.422 2.297,-0.837 2.456,-0.924 0.16,-0.087 0.436,-0.158 0.616,-0.158 0.179,0 0.366,-0.066 0.416,-0.146 0.05,-0.081 0.261,-0.185 0.468,-0.232 0.352,-0.079 0.837,-0.25 3.871,-1.36 1.444,-0.528 1.402,-0.58 1.459,1.824 l 0.048,1.998 21.482003,0.042 c 14.848,0.029 21.547,-0.012 21.693,-0.133 0.148,-0.122 0.244,-0.123 0.32,-0.001 0.14,0.227 154.94199,0.247 156.26899,0.021 0.496,-0.085 1.496,-0.242 2.222,-0.349 1.69,-0.249 4.326,-0.937 5.68,-1.481 2.006,-0.806 6.163,-3.11 7.372,-4.085 2.483,-2.003 3.973,-3.412 5.301,-5.012 1.378,-1.661 1.318,-1.609 1.609,-1.376 0.142,0.114 0.569,0.673 0.948,1.242 6.188,9.28 16.82,13.522 28.187,11.248 0.683,-0.137 1.642,-0.461 3.139,-1.06 0.533,-0.214 0.574,-0.202 0.982,0.277 1.556,1.826 1.988,2.326 2.185,2.528 0.18,0.184 1.209,0.218 5.417,0.183 l 5.194,-0.044 0.083,-0.917 0.083,-0.917 10.254,-0.043 10.253,-0.043 0.58,-0.955 c 0.319,-0.526 0.634,-1.069 0.7,-1.207 0.448,-0.937 1.769,-2.925 1.97,-2.963 0.134,-0.026 0.431,0.099 0.66,0.278 1.046,0.817 2.127,1.601 4.19,3.04 1.225,0.854 2.252,1.611 2.282,1.682 0.031,0.07 0.122,0.128 0.203,0.128 0.081,0 0.891,0.488 1.8,1.083 0.91,0.596 1.785,1.084 1.946,1.084 0.32,0 8.462,-4.007 8.551,-4.209 0.031,-0.068 0.151,-0.125 0.266,-0.125 0.268,0 1.227,-0.475 1.345,-0.666 0.083,-0.135 -0.043,-0.4 -0.896,-1.875 -0.172,-0.298 -0.594,-1.03 -0.937,-1.625 -0.343,-0.596 -0.765,-1.327 -0.937,-1.625 -0.624,-1.081 -0.955,-1.655 -1.894,-3.292 -0.526,-0.917 -1.089,-1.892 -1.251,-2.167 -0.933,-1.586 -1.501,-2.633 -1.501,-2.766 0,-0.083 -0.057,-0.151 -0.125,-0.152 -0.069,0 -0.208,-0.169 -0.31,-0.375 -0.101,-0.205 -0.395,-0.741 -0.653,-1.19 l -0.469,-0.818 0.403,-0.316 c 3.434,-2.695 5.277,-5.194 6.49,-8.799 2.71,-8.051 -1.741,-18.345 -10.336,-23.911 -1.713,-1.11 -1.908,-1.208 -4.441,-2.252 l -1.691,-0.697 -0.695,0.439 c -0.382,0.241 -0.953,0.585 -1.268,0.763 -1.009,0.572 -1.641,0.937 -2.256,1.304 -0.588,0.35 -0.728,0.357 -6.25,0.314 l -5.649,-0.044 -0.106,-0.833 c -0.059,-0.458 -0.199,-1.996 -0.312,-3.417 -0.237,-2.971 -0.221,-2.935 -1.091,-2.522 -0.694,0.329 -1.766,0.8 -2.325,1.022 -0.183,0.073 -0.746,0.321 -1.25,0.552 -0.504,0.231 -1.404,0.622 -2,0.868 -1.026,0.425 -1.586,0.669 -3.333,1.456 -2.249,1.013 -1.877,0.958 -6.412,0.958 h -4.217 l -0.977,1.183 c -1.598,1.935 -1.645,1.983 -1.944,1.983 -0.158,0 -0.418,-0.071 -0.577,-0.158 -0.882,-0.484 -3.055,-1.022 -6.059,-1.5 -3.547,-0.564 -9.645,0.322 -13.314,1.934 -1.418,0.623 -3.794,1.948 -4.498,2.508 -0.139,0.11 -0.702,0.545 -1.252,0.967 -0.55,0.422 -1.423,1.176 -1.939,1.675 -1.205,1.164 -1.162,1.178 -2.044,-0.634 -0.803,-1.647 -1.62,-3.155 -1.784,-3.292 -0.055,-0.046 -0.13,-0.161 -0.166,-0.256 -0.412,-1.068 -2.302,-3.402 -2.9,-3.582 -0.367,-0.11 -0.854,-0.258 -1.084,-0.329 -0.229,-0.071 -1.429,-0.406 -2.666,-0.746 -1.238,-0.34 -2.381,-0.686 -2.54,-0.769 -0.159,-0.083 -0.473,-0.151 -0.698,-0.151 -0.225,0 -0.451,-0.067 -0.501,-0.148 -0.081,-0.132 -0.702,-0.279 -1.672,-0.396 -0.253,-0.03 -0.356,0.095 -0.45,0.544 -0.287,1.377 -0.347,1.623 -0.584,2.375 l -0.249,0.792 h -15.392 -15.393 l -1.779,-1.709 c -1.701,-1.634 -2.242,-2.029 -2.242,-1.637 0,0.099 -0.071,0.179 -0.158,0.179 -0.087,0 -0.593,0.252 -1.125,0.559 -0.532,0.308 -1.38,0.784 -1.884,1.059 -0.504,0.275 -1.179,0.648 -1.5,0.83 -0.321,0.182 -1.015,0.568 -1.542,0.858 -0.527,0.29 -1.377,0.758 -1.888,1.04 -1.16,0.639 -1.403,0.565 -1.403,-0.424 v -0.755 h -18.511 -18.511 l -1.697,-1.454 c -0.934,-0.8 -1.961,-1.699 -2.281,-1.999 -0.792,-0.739 -0.749,-0.76 -2.213,1.093 -0.713,0.902 -1.448,1.802 -1.633,2.001 l -0.336,0.361 -13.442,-0.043 -13.442,-0.043 -1.259,-2.529 c -1.449,-2.912 -1.391,-2.833 -1.884,-2.598 -0.206,0.098 -1.012,0.422 -1.791,0.719 -0.78,0.297 -1.68,0.649 -2,0.783 -0.873,0.363 -1.178,0.484 -1.988,0.787 -1.999,0.748 -4.801,1.607 -6.304,1.934 -4.96,1.079 -4.922,1.077 -17.09299,1.017 l -10.967,-0.055 -0.142,-0.362 c -0.079,-0.199 -0.231,-0.6 -0.339,-0.89 -0.15,-0.402 -0.399,-0.614 -1.057,-0.897 -0.473,-0.203 -1.235,-0.538 -1.694,-0.745 -1.688,-0.762 -2.356,-1.056 -3.374,-1.482 -0.572,-0.239 -1.472,-0.63 -2,-0.867 -0.527,-0.238 -1.109,-0.498 -1.292,-0.577 -0.184,-0.08 -0.908,-0.402 -1.609,-0.716 l -1.275,-0.571 -0.104,0.525 c -0.097,0.491 -0.231,1.637 -0.568,4.871 -0.197,1.894 0.237,1.737 -4.793,1.737 -4.849,0 -4.259,0.093 -7.068,-1.117 -0.689,-0.296 -0.842,-0.358 -2.583,-1.053 -0.734,-0.292 -1.596,-0.644 -1.917,-0.781 -0.321,-0.138 -0.733,-0.31 -0.917,-0.383 -0.183,-0.073 -0.596,-0.246 -0.916003,-0.384 -0.321,-0.139 -1.056,-0.442 -1.633,-0.675 l -1.049,-0.423 -0.141,0.366 c -0.078,0.201 -0.269,0.704 -0.425,1.116 -0.156,0.413 -0.344,0.9 -0.419,1.084 -0.075,0.183 -0.262,0.67 -0.416,1.083 -0.154,0.412 -0.358,0.844 -0.453,0.958 -0.135,0.164 -3.13,0.209 -13.947,0.209 h -13.774 l -1.249,2.539 c -0.687,1.397 -1.36,2.56 -1.496,2.585 -0.216,0.038 -1.319,-1.415 -1.929,-2.541 -0.099,-0.183 -0.517,-0.858 -0.928,-1.5 -0.69,-1.077 -1.137,-1.934 -1.911,-3.667 -0.264,-0.589 -0.305,-1.345 -0.361,-6.541 -0.037,-3.478 -0.126,-5.874996 -0.218,-5.874996 -0.085,0 -0.51,0.157 -0.945,0.35 -0.434,0.192 -0.94,0.409 -1.123,0.483 -0.183,0.073 -0.596,0.247 -0.917,0.387 -0.321,0.14 -2.27,0.942 -4.333,1.781996 -2.062,0.84 -4.013,1.64 -4.333,1.779 -0.321,0.139 -0.734,0.312 -0.917,0.385 -0.183,0.073 -0.596,0.246 -0.917,0.384 -3.054,1.315 -2.92,1.293 -3.592,0.575 -0.279,-0.298 -1.096,-1.067 -1.817,-1.709 -2.772,-2.468996 -3.213,-2.878996 -4.703,-4.371996 -0.845,-0.847 -2.079,-2.3089999 -2.743,-3.2499999 -2.867,-4.061 -5.806,-5.624 -9.185,-4.884 m 2.437,5.245 c 0.286,0.177 0.786,0.683 1.112,1.125 0.326,0.4419999 1.023,1.3869999 1.55,2.0999999 1.268,1.718 2.684,3.200996 5.149,5.393996 5.134,4.566 4.978,3.988 1.876,6.977 -1.238,1.193 -2.25,2.293 -2.25,2.445 0,0.152 -0.046,0.395 -0.101,0.54 -0.196,0.509 0.721,0.167 10.101,-3.762 1.625,-0.681 2.34,-0.978 2.75,-1.141 0.183,-0.073 0.595,-0.246 0.916,-0.385 1.212,-0.525 5.982,-2.448 6.072,-2.448 0.052,0 0.095,0.481 0.095,1.068 0,3.059 1.092,5.897 4.06,10.552 3.548,5.564 4.541,7.397 5.427,10.021 2.769,8.198 0.304,17.576 -5.921,22.533 -5.812,4.627 -15.462,4.917 -20.167,0.606 -5.919,-5.424 -4.088,-15.135 3.208,-17.016 3.474,-0.896 6.56,1.087 6.56,4.215 0,2.067 -2.422,4.127 -4.462,3.796 -1.387,-0.225 -2.112,-0.792 -3.417,-2.671 -0.528,-0.76 -1.455,1.5 -1.455,3.548 0,6.805 8.333,9.916 13.259,4.949 4.326,-4.362 3.44,-12.181 -2.288,-20.187 -4.326,-6.048 -5.497,-8.227 -6.137,-11.414 -0.12,-0.596 -0.241,-1.112 -0.269,-1.146 -0.103,-0.127 -8.489,3.36 -8.69,3.613 -0.114,0.145 -0.208,0.621 -0.208,1.058 0,0.437 -0.07,1.341 -0.156,2.01 -0.086,0.668 -0.238,2.152 -0.339,3.298 -0.101,1.146 -0.258,2.871 -0.349,3.833 -0.09,0.963 -0.391,4.3 -0.669,7.417 -0.277,3.117 -0.576,6.417 -0.663,7.333 -0.088,0.917 -0.234,2.492 -0.324,3.5 -0.296,3.317 -0.451,4.811 -1.174,11.365 -0.278,2.516 -0.278,2.516 1.266,0.969 0.731,-0.734 1.645,-1.69 2.031,-2.125 0.81,-0.913 1.075,-0.967 1.641,-0.334 1.013,1.133 2.439,2.55 3.629,3.605 2.211,1.959 2.208,2.087 -0.104,4.13 -0.762,0.673 -1.72,1.663 -2.129,2.199 -1.615,2.119 -2.272,2.266 -3.451,0.775 -1.501,-1.9 -3.266,-3.514 -3.537,-3.234 -0.206,0.213 -0.672,3.75 -0.672,5.104 0,1.548 0.41,2.356 1.893,3.73 1.844,1.71 1.874,1.546 -0.688,3.794 -0.984,0.862 -2.035,1.9 -2.337,2.305 -1.198,1.609 -2.005,1.605 -3.306,-0.016 -0.412,-0.513 -1.513,-1.611 -2.447,-2.44 -2.236,-1.984 -2.238,-1.997 -0.406,-3.79 1.774,-1.737 1.86,-2.032 1.532,-5.287 -0.284,-2.828 -0.41,-3.527 -0.622,-3.456 -0.41,0.137 -1.969,1.63 -2.704,2.59 -1.68,2.193 -2.433,2.237 -3.933,0.229 -0.389,-0.52 -1.483,-1.696 -2.43,-2.613 -1.019,-0.986 -1.721,-1.797 -1.72,-1.988 10e-4,-0.304 1.41,-1.791 3.253,-3.434 0.46,-0.409 1.164,-1.136 1.565,-1.615 1.138,-1.361 1.503,-1.339 2.631,0.154 0.684,0.905 2.356,2.594 2.833,2.86 0.238,0.134 0.254,0.003 0.151,-1.247 -0.17,-2.065 -1.226,-13.954 -1.419,-15.98 -0.092,-0.962 -0.247,-2.687 -0.345,-3.833 -0.098,-1.146 -0.249,-2.833 -0.336,-3.75 -0.087,-0.917 -0.236,-2.492 -0.331,-3.5 -0.096,-1.008 -0.285,-2.949 -0.421,-4.313 -0.135,-1.364 -0.246,-2.583 -0.246,-2.709 0,-0.389 -0.654,-0.206 -2.75,0.772 -0.184,0.086 -1.421,0.616 -2.75,1.178 -1.329,0.563 -2.657,1.134 -2.95,1.271 -0.8049996,0.374 -0.8839996,0.218 -0.8809996,-1.751 0.003,-2.248 -0.214,-2.01 3.0949996,-3.377 1.55,-0.64 3.044,-1.268 3.319,-1.395 0.275,-0.128 0.837,-0.362 1.25,-0.522 1.26,-0.487 1.225,-0.399 1.098,-2.734 -0.225,-4.138 -0.796,-5.428 -3.496,-7.902 -2.705,-2.478 -2.703,-2.6 0.106,-4.954 2.066,-1.73 3.769,-3.308 5.377,-4.981 0.756,-0.785996 1.262,-1.371996 2.303,-2.665996 0.111,-0.138 0.536,-0.728 0.945,-1.3119999 1.227,-1.753 2.278,-2.227 3.397,-1.533 M 394.23341,25.549782 c -0.192,0.043 -0.615,0.356 -0.939,0.695 -2.394,2.505 0.883,6.158 3.603,4.018 2.403,-1.89 0.417,-5.403 -2.664,-4.713 m 2.432,0.979 c 1.512,1.448 0.588,3.754 -1.5,3.744 -1.399,-0.007 -2.166,-0.798 -2.166,-2.233 0,-1.825 2.335,-2.787 3.666,-1.511 m -2.5,1.5 c 0,1.372 0.378,2.114 0.53,1.041 0.066,-0.464 0.291,-0.481 0.536,-0.041 0.243,0.439 0.44,0.57 0.705,0.469 0.172,-0.067 0.164,-0.164 -0.041,-0.477 -0.258,-0.394 -0.186,-1.076 0.115,-1.076 0.085,0 0.155,-0.183 0.155,-0.407 0,-0.534 -0.579,-0.926 -1.37,-0.926 h -0.63 v 1.417 m 1.332,-0.836 c 0.277,0.334 0.092,0.752 -0.332,0.752 -0.378,0 -0.589,-0.36 -0.439,-0.75 0.122,-0.32 0.506,-0.321 0.771,-0.002 m -270.37799,0.294 c 0.957,0.451 1.086,0.601 1.372,1.601 0.122,0.426 0.48,1.599 0.795,2.607 0.315,1.009 0.784,2.509 1.042,3.334 1.28,4.096 1.242,3.936 0.99,4.097 -0.131,0.084 -2.748,0.149 -5.863,0.144 -3.095,-0.004 -5.702,0.038 -5.792,0.093 -0.184,0.114 -0.235,24.551 -0.053,25.648 0.127,0.773 1.619,2.447 3.214,3.609 1.14,0.83 1.14,0.832 0.625,1.742 l -0.378,0.667 -7.244,0.046 c -8.65,0.055 -7.995,0.147 -7.995,-1.115 0,-1.017 0.118,-1.181 0.844,-1.181 0.615,0 1.611,-0.519 1.802,-0.938 0.139,-0.305 0.19,-3.825 0.187,-12.783 -0.002,-6.799 -0.003,-12.453 -0.002,-12.563 0.001,-0.11 0.458,-0.467 1.015,-0.794 0.556,-0.326 1.624,-0.986 2.373,-1.466 l 1.361,-0.873 -6.082,-0.054 c -5.886,-0.053 -8.221003,0.076 -9.040003,0.499 -0.229,0.118 -0.473,-0.018 -1.117,-0.621 l -0.825,-0.772 0.548,-0.796 c 0.67,-0.975 1.726,-3.353 2.522,-5.682 0.327,-0.957 0.666003,-1.871 0.754003,-2.03 0.088,-0.159 0.16,-0.395 0.16,-0.523 0,-0.129 0.131,-0.395 0.292,-0.592 l 0.291,-0.358 1,0.408 1,0.409 0.008,0.747 c 0.013,1.377 -0.724,1.282 9.904,1.282 8.795,0 9.471,-0.021 9.709,-0.292 0.457,-0.522 0.788,-1.329 1.07,-2.614 0.311,-1.414 0.348,-1.435 1.513,-0.886 m 229.27499,0 c 0.055,0.206 0.101,0.513 0.102,0.683 0.005,0.644 0.545,2.133 0.947,2.611 l 0.419,0.498 h 9.833 9.833 l -0.104,-0.625 c -0.101,-0.609 -0.083,-0.637 0.701,-1.074 l 0.806,-0.449 1.242,0.67 c 12.044,6.5 12.511,22.522 0.73,25.048 -1.891,0.405 -1.812,0.356 -1.443,0.887 0.176,0.253 0.678,1.097 1.115,1.876 0.438,0.779 0.928,1.642 1.089,1.917 0.258,0.44 1.585,2.748 2.54,4.416 0.183,0.321 1.225,2.129 2.314,4.018 1.089,1.889 1.981,3.557 1.981,3.706 0,0.26 -0.951,0.776 -1.428,0.776 -0.385,0 -3.41,-2.157 -10.4,-7.416 -0.515,-0.388 -2.05,-1.627 -2.172,-1.753 -0.046,-0.048 -0.571,-0.488 -1.167,-0.978 -1.547,-1.272 -5.606,-4.991 -6.548,-5.999 -1.158,-1.238 -1.119,-1.38 -1.119,3.996 0,5.947 0.116,6.23 3.433,8.433 0.957,0.636 0.963,0.671 0.285,1.761 l -0.391,0.626 -7.455,-0.043 -7.455,-0.043 v -1.084 -1.083 l 0.667,-0.1 c 2.069,-0.312 1.916,0.782 1.916,-13.697 0,-11.765 0.019,-12.584 0.292,-12.814 0.16,-0.136 1.228,-0.841 2.373,-1.568 l 2.081,-1.321 -5.295,-0.044 c -6.052,-0.05 -5.649,0.079 -5.112,-1.642 0.197,-0.631 0.603,-1.935 0.903,-2.897 0.299,-0.963 0.849,-2.725 1.221,-3.917 0.373,-1.192 0.725,-2.332 0.783,-2.535 0.219,-0.764 2.313,-1.472 2.483,-0.84 m -184.562,0.959 0.391,0.833 -0.404,0.446 c -0.222,0.245 -0.802,0.874 -1.29,1.398 -1.005,1.081 -1.667,1.953 -2.178,2.869 -0.505,0.904 -0.563,33.725 -0.061,34.145 0.442,0.369 1.168,0.642 1.711,0.642 0.576,0 0.762,0.311 0.748,1.25 -0.018,1.151 0.463,1.083 -7.665,1.083 h -7.396 l -0.311,-0.458 c -0.791,-1.165 -0.778,-1.284 0.208,-1.939 1.238,-0.821 2.867,-2.451 3.166,-3.166 0.28,-0.671 0.371,-12.151 0.099,-12.58 -0.356,-0.562 -2.192,0.866 -4.364,3.396 -2.294,2.672 -2.4,2.667 -5.153,-0.259 -2.073,-2.203 -3.08699,-3.05 -3.89199,-3.252 l -0.442,-0.111 v 6.235 6.235 l 0.471,0.744 c 0.531,0.836 1.68599,1.913 2.98699,2.783 0.481,0.322 0.875,0.615 0.875,0.651 0,0.036 -0.189,0.439 -0.42,0.895 l -0.421,0.829 -7.53799,-0.043 -7.538,-0.043 v -1.084 c 0,-1.082 10e-4,-1.083 0.5,-1.131 0.64,-0.062 1.419,-0.354 1.792,-0.672 0.274,-0.233 0.292,-1.186 0.292,-15.614 v -15.366 l -0.475,-0.65 c -0.585,-0.801 -1.85,-1.988 -2.996,-2.811 -1.015,-0.729 -0.996,-0.647 -0.365,-1.641 l 0.497,-0.785 7.461,0.044 7.46099,0.043 v 1.167 c 0,1.121 -0.016,1.168 -0.417,1.211 -2.34099,0.253 -2.16599,-0.369 -2.16599,7.705 0,5.357 0.045,6.833 0.208,6.832 0.819,-0.006 2.60299,-1.517 4.58099,-3.88 1.977,-2.362 2.418,-2.391 4.18,-0.28 2.224,2.668 4.17,4.336 4.783,4.101 0.213,-0.082 0.248,-1.014 0.248,-6.758 v -6.663 l -0.378,-0.439 c -0.289,-0.336 -0.594,-0.466 -1.292,-0.551 l -0.914,-0.112 v -1.166 -1.166 l 1.334,-0.197 c 4.204,-0.62 9.286,-1.928 12.212,-3.143 1.329,-0.553 1.424,-0.531 1.871,0.423 m 128.144,0.846 c 1.665,0.498 4.547,6.644 5.352,11.415 1.047,6.202 -0.05,12.137 -3.324,17.988 -3.381,6.042 -9.518,10.365 -17.172,12.097 -1.326,0.3 -16.078,0.434 -16.421,0.15 -0.667,-0.554 -0.21,-2.163 0.613,-2.163 0.518,0 1.248,-0.279 1.683,-0.642 0.274,-0.229 0.292,-1.221 0.292,-16.495 v -16.251 l -0.424,-0.723 c -0.265,-0.453 -0.674,-0.851 -1.092,-1.064 l -0.667,-0.34 0.05,-0.951 0.049,-0.951 13.834,-0.083 c 13.101,-0.079 13.866,-0.1 14.463,-0.396 0.641,-0.319 1.287,-0.993 1.287,-1.343 0,-0.285 0.376,-0.614 0.603,-0.527 0.107,0.041 0.501,0.167 0.874,0.279 m -41.319,0.709 c 7.412,7.908 8.229,21.733 1.9,32.152 -0.798,1.314 -0.819,1.306 3.183,1.27 2.3,-0.02 3.344,0.028 3.386,0.155 0.058,0.173 -0.46,1.932 -1.704,5.784 l -0.538,1.667 -6.234,0.046 c -7.091,0.053 -6.823,0.079 -7.201,-0.713 -0.389,-0.815 -0.388,-0.818 0.534,-2.063 1.37,-1.848 2.696,-4.551 3.198,-6.52 0.843,-3.302 1.105,-6.163 0.836,-9.125 -0.197,-2.159 -0.282,-2.703 -0.716,-4.542 -0.787,-3.343 -2.587,-6.974 -4.495,-9.071 l -0.748,-0.821 -0.904,0.513 c -0.498,0.283 -1.187,0.671 -1.53,0.863 -0.693,0.387 -1.298,0.728 -2.542,1.433 -0.458,0.26 -1.583,0.884 -2.5,1.386 -0.917,0.502 -1.798,1.026 -1.958,1.164 -0.435,0.375 -0.451,21.063 -0.018,21.977 0.351,0.739 1.503,1.89 2.934,2.931 1.258,0.915 1.27,0.944 0.742,1.875 l -0.377,0.667 -7.402,0.043 c -8.145,0.048 -7.726,0.108 -7.715,-1.105 0.008,-1.011 0.108,-1.188 0.668,-1.188 0.241,0 0.761,-0.157 1.157,-0.349 l 0.719,-0.348 v -15.642 -15.642 l -0.941,-1.016 c -0.517,-0.559 -1.455,-1.399 -2.083,-1.866 -1.285,-0.955 -1.317,-1.047 -0.703,-1.976 l 0.44,-0.665 7.435,0.044 7.435,0.043 0.05,1.044 c 0.036,0.748 -0.012,1.06 -0.167,1.102 -0.119,0.032 -0.585,0.147 -1.036,0.255 -1.305,0.312 -1.43,0.562 -1.43,2.865 0,1.08 0.07,2.008 0.156,2.061 0.086,0.053 2.467,-1.19 5.292,-2.762 2.824,-1.572 5.548,-3.085 6.052,-3.361 0.504,-0.276 1.352,-0.754 1.884,-1.061 0.532,-0.308 0.989,-0.56 1.015,-0.56 0.026,0 0.716,-0.374 1.533,-0.833 1.785,-1.001 1.569,-0.991 2.393,-0.111 m 87.175,8.111 0.083,8.75 0.579,-0.047 c 0.694,-0.057 1.599,-0.567 2.89,-1.63 1.026,-0.845 1.566,-0.883 2.528,-0.18 0.306,0.225 -0.478,3.382 -1.425,5.738 -0.447,1.11 -0.39,2.172 0.14,2.637 l 0.506,0.444 -0.92,0.805 -0.92,0.805 -1.689,0.047 -1.689,0.048 -0.083,8.75 -0.083,8.75 -0.852,0.049 -0.852,0.05 -0.898,-1.05 c -0.494,-0.577 -1.106,-1.274 -1.359,-1.549 -0.253,-0.275 -0.741,-0.853 -1.083,-1.283 -0.856,-1.076 -0.946,-1.086 -2.195,-0.229 -5.46,3.746 -13.972,3.741 -20.23,-0.012 -4.877,-2.925 -9.107,-8.925 -11.755,-16.675 -0.451,-1.32 0.048,-2.989 2.25,-7.533 6.267,-12.928 19.37,-17.993 29.499,-11.403 0.748,0.487 1.397,0.885 1.442,0.885 0.046,0 0.859,-0.918 1.808,-2.04 2.603,-3.078 2.497,-2.988 3.429,-2.928 l 0.796,0.051 0.083,8.75 m -137.47,-8.042 c 0.032,0.069 0.327,0.373 0.655,0.675 l 0.597,0.549 7.817,0.034 7.818,0.034 v 1.07 1.07 l -0.953,0.19 c -1.811,0.362 -1.631,-1.432 -1.631,16.254 v 15.449 l 0.471,0.65 c 0.477,0.658 1.881,1.927 3.128,2.826 0.741,0.534 0.747,0.622 0.122,1.618 l -0.394,0.626 -7.455,-0.043 -7.455,-0.043 v -1.084 c 0,-1.082 10e-4,-1.083 0.5,-1.131 0.639,-0.062 1.419,-0.354 1.792,-0.672 0.482,-0.411 0.446,-30.691 -0.038,-31.485 -0.458,-0.751 -1.653,-1.896 -2.925,-2.804 -0.594,-0.424 -1.08,-0.857 -1.081,-0.964 -0.002,-0.217 -0.839,0.641 -2.085,2.136 -0.456,0.548 -1.027,1.223 -1.269,1.5 -0.241,0.277 -1.812,2.116 -3.489,4.087 -1.678,1.971 -3.749,4.393 -4.603,5.382 -0.854,0.989 -1.552,1.903 -1.552,2.031 0,0.488 1.498,2.057 3.45,3.613 1.558,1.243 1.596,1.844 0.188,2.965 -1.296,1.032 -2.606,2.298 -3.721,3.595 -2.209,2.569 -2.623,2.677 -3.923,1.021 -0.791,-1.008 -3.828,-4.107 -4.025,-4.107 -0.075,0 -0.136,2.314 -0.136,5.142 v 5.141 l 0.472,0.65 c 0.55,0.758 2.166,2.266 3.068,2.863 0.741,0.49 0.713,0.351 0.258,1.289 -0.481,0.988 0.056,0.931 -8.298,0.878 l -7.25,-0.046 v -1.084 -1.083 l 0.584,-0.048 c 0.704,-0.057 1.479,-0.335 1.875,-0.672 0.273,-0.232 0.292,-1.065 0.295,-13.014 l 0.004,-12.766 2.368,-1.5 2.369,-1.5 -3.955,-0.045 -3.956,-0.044 -0.847,0.429 c -0.823,0.417 -2.222,1.666 -2.955,2.638 l -0.361,0.479 -0.912,-0.37 c -1.458,-0.592 -1.502,-0.326 0.834,-5.077 1.99,-4.047 2.1,-4.324 2.047,-5.143 l -0.056,-0.867 16.083,-0.083 c 17.624,-0.092 16.984,-0.054 17.812,-1.057 0.238,-0.288 0.618,-0.368 0.718,-0.152 m -115.030993,2.334 -0.001,1.125 -0.788,0.25 c -1.556,0.493 -1.736,-0.373 2.616,12.583 2.124,6.325 3.978,11.875 4.12,12.333 0.141,0.459 0.319,0.984 0.394,1.167 0.076,0.183 0.484,1.383 0.909,2.667 1.243,3.76 1.949003,4.766 4.311003,6.147 1.273,0.744 1.238,0.658 0.675,1.667 l -0.432,0.772 -7.693003,-0.043 -7.693,-0.043 v -1.084 -1.083 l 0.849,-0.104 c 2.001,-0.244 2.119,-0.497 1.388,-2.999 -0.653,-2.232 -0.536,-2.18 -2.948,-1.317 -1.076,0.384 -2.556,0.914 -3.289,1.177 -0.734,0.262 -2.159,0.774 -3.167,1.138 -1.008,0.364 -2.508,0.897 -3.333,1.186 -0.825,0.288 -1.65,0.591 -1.834,0.671 -0.183,0.081 -1.533,0.569 -3,1.084 -1.466,0.515 -3.041,1.079 -3.5,1.254 -4.084,1.555 -4.44,1.636 -5.327,1.212 -0.765,-0.364 -0.932,0.348 1.836,-7.816 1.334,-3.934 3.219,-9.515 4.188,-12.403 0.97,-2.887 2.43,-7.2 3.246,-9.583 1.009,-2.944 1.453,-4.467 1.386,-4.75 -0.153,-0.65 -1.1,-1.99 -2.392,-3.383 -1.258,-1.357 -1.257,-1.354 -0.638,-2.409 l 0.318,-0.541 h 9.9 9.9 l -0.001,1.125 m 235.250993,2.816 c -3.268,0.531 -6.239,2.864 -8.138,6.392 -0.82,1.524 -1.779,4.226 -1.779,5.015 v 0.485 h 11.667 11.667 v -0.544 c 0,-0.299 -0.179,-1.105 -0.398,-1.791 -2.123,-6.653 -7.335,-10.479 -13.019,-9.557 m -41.417,4.059 -7.083,0.083 -0.047,12.667 c -0.058,15.684 -0.18,15.023 2.767,14.977 9.113,-0.141 16.348,-15.957 12.252,-26.785 -0.413,-1.092 0.059,-1.036 -7.889,-0.942 m 78.664,-0.028 c -0.103,0.035 -0.164,1.97 -0.164,5.191 v 5.135 l 0.793,0.509 c 5.027,3.226 12.257,2.16 13.603,-2.005 0.937,-2.904 -0.505,-6.088 -3.43,-7.57 -0.835,-0.423 -1.095,-0.522 -2.466,-0.937 -0.536,-0.162 -7.961,-0.45 -8.336,-0.323 m -177.664,5.861 c 0,3.208 0.062,5.833 0.137,5.833 0.076,0 0.58,-0.506 1.12,-1.125 0.541,-0.618 1.369,-1.537 1.841,-2.041 4.91,-5.245 6.569,-7.293 6.569,-8.11 v -0.39 h -4.833 -4.834 v 5.833 m -103.784993,-3.129 c -0.147,0.188 -0.954,2.635 -1.912,5.796 -0.181,0.595 -0.393,1.271 -0.472,1.5 -0.078,0.229 -0.378,1.204 -0.666,2.166 -0.288,0.963 -0.626,2.05 -0.751,2.417 -0.124,0.367 -0.536,1.679 -0.914,2.917 -0.378,1.237 -0.757,2.422 -0.843,2.633 -0.086,0.21 -0.157,0.566 -0.157,0.791 v 0.409 l 5.625,-0.003 c 3.094,-10e-4 5.71,-0.057 5.813,-0.125 0.132,-0.086 -0.034,-0.842 -0.557,-2.539 -0.409,-1.329 -0.881,-2.866 -1.049,-3.416 -0.167,-0.55 -0.73,-2.388 -1.251,-4.084 -0.52,-1.696 -1.083,-3.533 -1.25,-4.083 -1.581,-5.213 -1.383,-4.677 -1.616,-4.379 m 234.284993,13.923 c 0,1.166 1.32,4.436 2.569,6.368 5.487,8.482 16.867,6.228 20.177,-3.995 0.163,-0.504 0.362,-1.089 0.442,-1.3 0.08,-0.21 0.146,-0.642 0.146,-0.958 v -0.576 h -11.667 -11.667 v 0.461"
                stroke="none"
                fill="#fc4"
                fill-rule="evenodd"
                transform = "scale(0.5)"

        />
    </g>
</svg>
