<?xml version="1.0" encoding="UTF-8" standalone="no"?>
<svg
   id="pathfinder_logo"
   version="1.1"
   width="189.65776"
   height="43.271706"
   viewBox="0 0 189.65776 43.271707"
   xmlns="http://www.w3.org/2000/svg"
   xmlns:svg="http://www.w3.org/2000/svg">
  <defs
     id="defs200" />
  <path
     id="path1-5"
     d="m 8.9498363,0.39807224 c 0.143,0.0885 0.393,0.3415 0.556,0.5625 0.163,0.22099996 0.5114997,0.69349996 0.7749997,1.04999996 0.634,0.859 1.342,1.6005 2.5745,2.697 2.567,2.283 2.489,1.994 0.938,3.4885 -0.619,0.5965 -1.125,1.1465 -1.125,1.2225 0,0.076 -0.023,0.1975 -0.0505,0.27 -0.098,0.2545 0.3605,0.0835 5.0505,-1.881 0.8125,-0.3405 1.17,-0.489 1.375,-0.5705 0.0915,-0.0365 0.2975,-0.123 0.458,-0.1925 0.606,-0.2625 2.991,-1.224 3.036,-1.224 0.026,0 0.0475,0.2405 0.0475,0.534 0,1.5295 0.546,2.9485 2.03,5.2759998 1.774,2.782 2.2705,3.6985 2.7135,5.0105 1.3845,4.099 0.152,8.788 -2.9605,11.2665 -2.906,2.3135 -7.731,2.4585 -10.0835,0.303 -2.9595,-2.712 -2.044,-7.5675 1.604,-8.508 1.737,-0.448 3.28,0.5435 3.28,2.1075 0,1.0335 -1.211,2.0635 -2.231,1.898 -0.6935,-0.1125 -1.056,-0.396 -1.7085,-1.3355 -0.264,-0.38 -0.7275,0.75 -0.7275,1.774 0,3.4025 4.1665,4.958 6.6295,2.4745 2.163,-2.181 1.72,-6.0905 -1.144,-10.0935 -2.163,-3.024 -2.7485,-4.1135 -3.0685,-5.707 -0.06,-0.298 -0.1205,-0.556 -0.1345,-0.573 -0.0515,-0.0635 -4.2445,1.68 -4.345,1.8065 -0.057,0.0725 -0.104,0.3105 -0.104,0.529 0,0.2185 -0.035,0.6705 -0.078,1.005 -0.043,0.334 -0.119,1.076 -0.1695,1.649 -0.0505,0.573 -0.129,1.4355 -0.1745,1.9165 -0.045,0.4815 -0.1955,2.15 -0.3345,3.7085 -0.1385,1.5585 -0.288,3.2085 -0.3315,3.6665 -0.044,0.4585 -0.117,1.246 -0.162,1.75 -0.148,1.6585 -0.2255,2.4055 -0.587,5.6825 -0.139,1.258 -0.139,1.258 0.633,0.4845 0.3655,-0.367 0.8225,-0.845 1.0155,-1.0625 0.405,-0.4565 0.5375,-0.4835 0.8205,-0.167 0.5065,0.5665 1.2195,1.275 1.8145,1.8025 1.1055,0.9795 1.104,1.0435 -0.052,2.065 -0.381,0.3365 -0.86,0.8315 -1.0645,1.0995 -0.8075,1.0595 -1.136,1.133 -1.7255,0.3875 -0.7505,-0.95 -1.633,-1.757 -1.7685,-1.617 -0.103,0.1065 -0.3359997,1.875 -0.3359997,2.552 0,0.774 0.2049997,1.178 0.9464997,1.865 0.922,0.855 0.937,0.773 -0.344,1.897 -0.4919997,0.431 -1.0174997,0.95 -1.1684997,1.1525 -0.599,0.8045 -1.0025,0.8025 -1.653,-0.008 -0.206,-0.2565 -0.7565,-0.8055 -1.2235,-1.22 -1.118,-0.992 -1.119,-0.9985 -0.203,-1.895 0.887,-0.8685 0.93,-1.016 0.766,-2.6435 -0.142,-1.414 -0.205,-1.7635 -0.311,-1.728 -0.205,0.0685 -0.9845,0.815 -1.352,1.295 -0.84,1.0965 -1.2165,1.1185 -1.9665,0.1145 -0.1945,-0.26 -0.7415,-0.848 -1.2150005,-1.3065 -0.5095,-0.493 -0.8605,-0.8985 -0.86,-0.994 5e-4,-0.152 0.705,-0.8955 1.6265005,-1.717 0.23,-0.2045 0.582,-0.568 0.7825,-0.8075 0.569,-0.6805 0.7515,-0.6695 1.3155,0.077 0.342,0.4525 1.178,1.297 1.4165,1.43 0.119,0.067 0.127,10e-4 0.0755,-0.6235 -0.085,-1.0325 -0.613,-6.977 -0.7095,-7.99 -0.046,-0.481 -0.1235,-1.3435 -0.1725,-1.9165 -0.049,-0.573 -0.1245,-1.4165 -0.168,-1.875 -0.0435,-0.4585 -0.118,-1.246 -0.1655,-1.75 -0.048,-0.504 -0.1425,-1.4745 -0.2105,-2.1565 -0.0675,-0.682 -0.123,-1.2915 -0.123,-1.3545 0,-0.1945 -0.327,-0.103 -1.375,0.386 -0.092,0.043 -0.7105,0.308 -1.3750005,0.589 -0.6645,0.2815 -1.32850002,0.567 -1.47500002,0.6355 -0.4024998,0.187 -0.4419998,0.109 -0.4404998,-0.8755 0.0015,-1.124 -0.107,-1.005 1.54749982,-1.6885 0.7750005,-0.32 1.5220005,-0.634 1.6595005,-0.6975 0.1375,-0.064 0.4185,-0.181 0.625,-0.261 0.63,-0.2435 0.6125,-0.1995 0.549,-1.367 -0.1125,-2.069 -0.398,-2.7139998 -1.748,-3.9509998 -1.3525005,-1.239 -1.3515005,-1.3 0.053,-2.477 1.033,-0.865 1.8845,-1.654 2.6885,-2.4905 0.378,-0.393 0.631,-0.686 1.1515,-1.333 0.0555,-0.069 0.268,-0.364 0.4725,-0.656 0.6135,-0.87649996 1.139,-1.11349996 1.6985,-0.76649996 M 58.228337,9.9245722 c 0.4785,0.2254998 0.543,0.3004998 0.686,0.8004998 0.061,0.213 0.24,0.7995 0.3975,1.3035 0.1575,0.5045 0.392,1.2545 0.521,1.667 0.64,2.048 0.621,1.968 0.495,2.0485 -0.0655,0.042 -1.374,0.0745 -2.9315,0.072 -1.5475,-0.002 -2.851,0.019 -2.896,0.0465 -0.092,0.057 -0.1175,12.2755 -0.0265,12.824 0.0635,0.3865 0.8095,1.2235 1.607,1.8045 0.57,0.415 0.57,0.416 0.3125,0.871 l -0.189,0.3335 -3.622,0.023 c -4.325,0.0275 -3.9975,0.0735 -3.9975,-0.5575 0,-0.5085 0.059,-0.5905 0.422,-0.5905 0.3075,0 0.8055,-0.2595 0.901,-0.469 0.0695,-0.1525 0.095,-1.9125 0.0935,-6.3915 -10e-4,-3.3995 -0.0015,-6.2265 -10e-4,-6.2815 5e-4,-0.055 0.229,-0.2335 0.5075,-0.397 0.278,-0.163 0.812,-0.493 1.1865,-0.733 l 0.6805,-0.4365 -3.041,-0.027 c -2.943,-0.0265 -4.110502,0.038 -4.520002,0.2495 -0.1145,0.059 -0.2365,-0.009 -0.5585,-0.3105 l -0.4125,-0.386 0.274,-0.398 c 0.335,-0.4875 0.863,-1.6765 1.261,-2.841 0.1635,-0.4785 0.333002,-0.9355 0.377002,-1.015 0.044,-0.0795 0.08,-0.1975 0.08,-0.2615 0,-0.0645 0.0655,-0.1975 0.146,-0.296 l 0.1455,-0.179 0.5,0.204 0.5,0.2045 0.004,0.3735 c 0.0065,0.6885 -0.362,0.641 4.952,0.641 4.3975,0 4.7355,-0.0105 4.8545,-0.146 0.2285,-0.261 0.394,-0.6645 0.535,-1.307 0.1555,-0.7069998 0.174,-0.7174998 0.7565,-0.4429998 m 114.637493,0 c 0.0275,0.1029998 0.0505,0.2564998 0.051,0.3414998 0.002,0.322 0.2725,1.0665 0.4735,1.3055 l 0.2095,0.249 h 4.9165 4.9165 l -0.052,-0.3125 c -0.0505,-0.3045 -0.0415,-0.3185 0.3505,-0.537 l 0.403,-0.2245 0.621,0.335 c 6.022,3.25 6.2555,11.261 0.365,12.524 -0.9455,0.2025 -0.906,0.178 -0.7215,0.4435 0.088,0.1265 0.339,0.5485 0.5575,0.938 0.219,0.3895 0.464,0.821 0.5445,0.9585 0.129,0.22 0.7925,1.374 1.27,2.208 0.0915,0.1605 0.6125,1.0645 1.157,2.009 0.5445,0.9445 0.9905,1.7785 0.9905,1.853 0,0.13 -0.4755,0.388 -0.714,0.388 -0.1925,0 -1.705,-1.0785 -5.2,-3.708 -0.2575,-0.194 -1.025,-0.8135 -1.086,-0.8765 -0.023,-0.024 -0.2855,-0.244 -0.5835,-0.489 -0.7735,-0.636 -2.803,-2.4955 -3.274,-2.9995 -0.579,-0.619 -0.5595,-0.69 -0.5595,1.998 0,2.9735 0.058,3.115 1.7165,4.2165 0.4785,0.318 0.4815,0.3355 0.1425,0.8805 l -0.1955,0.313 -3.7275,-0.0215 -3.7275,-0.0215 v -0.542 -0.5415 l 0.3335,-0.05 c 1.0345,-0.156 0.958,0.391 0.958,-6.8485 0,-5.8825 0.009,-6.292 0.146,-6.407 0.08,-0.068 0.614,-0.4205 1.1865,-0.784 l 1.0405,-0.6605 -2.6475,-0.022 c -3.026,-0.025 -2.8245,0.0395 -2.556,-0.821 0.0985,-0.3155 0.3015,-0.9675 0.4515,-1.4485 0.1495,-0.4815 0.4245,-1.3625 0.6105,-1.9585 0.1865,-0.596 0.3625,-1.166 0.3915,-1.2675 0.1095,-0.3819998 1.1565,-0.7359998 1.2415,-0.4199998 m -92.280998,0.4794998 0.1955,0.4165 -0.202,0.223 c -0.111,0.1225 -0.401,0.437 -0.645,0.699 -0.5025,0.5405 -0.8335,0.9765 -1.089,1.4345 -0.2525,0.452 -0.2815,16.8625 -0.0305,17.0725 0.221,0.1845 0.584,0.321 0.8555,0.321 0.288,0 0.381,0.1555 0.374,0.625 -0.009,0.5755 0.2315,0.5415 -3.8325,0.5415 h -3.698 l -0.1555,-0.229 c -0.3955,-0.5825 -0.389,-0.642 0.104,-0.9695 0.619,-0.4105 1.4335,-1.2255 1.583,-1.583 0.14,-0.3355 0.1855,-6.0755 0.0495,-6.29 -0.178,-0.281 -1.096,0.433 -2.182,1.698 -1.147,1.336 -1.2,1.3335 -2.5765,-0.1295 -1.0365,-1.1015 -1.543495,-1.525 -1.945995,-1.626 l -0.221,-0.0555 v 3.1175 3.1175 l 0.2355,0.372 c 0.2655,0.418 0.842995,0.9565 1.493495,1.3915 0.2405,0.161 0.4375,0.3075 0.4375,0.3255 0,0.018 -0.0945,0.2195 -0.21,0.4475 l -0.2105,0.4145 -3.768995,-0.0215 -3.769,-0.0215 v -0.542 c 0,-0.541 5e-4,-0.5415 0.25,-0.5655 0.32,-0.031 0.7095,-0.177 0.896,-0.336 0.137,-0.1165 0.146,-0.593 0.146,-7.807 v -7.683 l -0.2375,-0.325 c -0.2925,-0.4005 -0.925,-0.994 -1.498,-1.4055 -0.5075,-0.3645 -0.498,-0.3235 -0.1825,-0.8205 l 0.2485,-0.3925 3.7305,0.022 3.730495,0.0215 v 0.5835 c 0,0.5605 -0.008,0.584 -0.2085,0.6055 -1.170495,0.1265 -1.082995,-0.1845 -1.082995,3.8525 0,2.6785 0.0225,3.4165 0.104,3.416 0.4095,-0.003 1.301495,-0.7585 2.290495,-1.94 0.9885,-1.181 1.209,-1.1955 2.09,-0.14 1.112,1.334 2.085,2.168 2.3915,2.0505 0.1065,-0.041 0.124,-0.507 0.124,-3.379 v -3.3315 l -0.189,-0.2195 c -0.1445,-0.168 -0.297,-0.233 -0.646,-0.2755 l -0.457,-0.056 v -0.583 -0.583 l 0.667,-0.0985 c 2.102,-0.31 4.643,-0.964 6.106,-1.5715 0.6645,-0.2764998 0.712,-0.2654998 0.9355,0.2115 m 64.071998,0.423 c 0.8325,0.249 2.2735,3.322 2.676,5.7075 0.5235,3.101 -0.025,6.0685 -1.662,8.994 -1.6905,3.021 -4.759,5.1825 -8.586,6.0485 -0.663,0.15 -8.039,0.217 -8.2105,0.075 -0.3335,-0.277 -0.105,-1.0815 0.3065,-1.0815 0.259,0 0.624,-0.1395 0.8415,-0.321 0.137,-0.1145 0.146,-0.6105 0.146,-8.2475 v -8.1255 l -0.212,-0.3615 c -0.1325,-0.2265 -0.337,-0.4255 -0.546,-0.532 l -0.3335,-0.17 0.025,-0.4755 0.0245,-0.4755 6.917,-0.0415 c 6.5505,-0.0395 6.933,-0.05 7.2315,-0.198 0.3205,-0.1595 0.6435,-0.4965 0.6435,-0.6715 0,-0.1425 0.188,-0.307 0.3015,-0.2635 0.0535,0.0205 0.2505,0.0835 0.437,0.1395 m -20.6595,0.3545 c 3.706,3.954 4.1145,10.8665 0.95,16.076 -0.399,0.657 -0.4095,0.653 1.5915,0.635 1.15,-0.01 1.672,0.014 1.693,0.0775 0.029,0.0865 -0.23,0.966 -0.852,2.892 l -0.269,0.8335 -3.117,0.023 c -3.5455,0.0265 -3.4115,0.0395 -3.6005,-0.3565 -0.1945,-0.4075 -0.194,-0.409 0.267,-1.0315 0.685,-0.924 1.348,-2.2755 1.599,-3.26 0.4215,-1.651 0.5525,-3.0815 0.418,-4.5625 -0.0985,-1.0795 -0.141,-1.3515 -0.358,-2.271 -0.3935,-1.6715 -1.2935,-3.487 -2.2475,-4.5355 l -0.374,-0.4105 -0.452,0.2565 c -0.249,0.1415 -0.5935,0.3355 -0.765,0.4315 -0.3465,0.1935 -0.649,0.364 -1.271,0.7165 -0.229,0.13 -0.7915,0.442 -1.25,0.693 -0.4585,0.251 -0.899,0.513 -0.979,0.582 -0.2175,0.1875 -0.2255,10.5315 -0.009,10.9885 0.1755,0.3695 0.7515,0.945 1.467,1.4655 0.629,0.4575 0.635,0.472 0.371,0.9375 l -0.1885,0.3335 -3.701,0.0215 c -4.0725,0.024 -3.863,0.054 -3.8575,-0.5525 0.004,-0.5055 0.054,-0.594 0.334,-0.594 0.1205,0 0.3805,-0.0785 0.5785,-0.1745 l 0.3595,-0.174 v -7.821 -7.821 l -0.4705,-0.508 c -0.2585,-0.2795 -0.7275,-0.6995 -1.0415,-0.933 -0.6425,-0.4775 -0.6585,-0.5235 -0.3515,-0.988 l 0.22,-0.3325 3.7175,0.022 3.7175,0.0215 0.025,0.522 c 0.018,0.374 -0.006,0.53 -0.0835,0.551 -0.0595,0.016 -0.2925,0.0735 -0.518,0.1275 -0.6525,0.156 -0.715,0.281 -0.715,1.4325 0,0.54 0.035,1.004 0.078,1.0305 0.043,0.0265 1.2335,-0.595 2.646,-1.381 1.412,-0.786 2.774,-1.5425 3.026,-1.6805 0.252,-0.138 0.676,-0.377 0.942,-0.5305 0.266,-0.154 0.4945,-0.28 0.5075,-0.28 0.013,0 0.358,-0.187 0.7665,-0.4165 0.8925,-0.5005 0.7845,-0.4955 1.1965,-0.0555 m 43.5875,4.0555 0.0415,4.375 0.2895,-0.0235 c 0.347,-0.0285 0.7995,-0.2835 1.445,-0.815 0.513,-0.4225 0.783,-0.4415 1.264,-0.09 0.153,0.1125 -0.239,1.691 -0.7125,2.869 -0.2235,0.555 -0.195,1.086 0.07,1.3185 l 0.253,0.222 -0.46,0.4025 -0.46,0.4025 -0.8445,0.0235 -0.8445,0.024 -0.0415,4.375 -0.0415,4.375 -0.426,0.0245 -0.426,0.025 -0.449,-0.525 c -0.247,-0.2885 -0.553,-0.637 -0.6795,-0.7745 -0.1265,-0.1375 -0.3705,-0.4265 -0.5415,-0.6415 -0.428,-0.538 -0.473,-0.543 -1.0975,-0.1145 -2.73,1.873 -6.986,1.8705 -10.115,-0.006 -2.4385,-1.4625 -4.5535,-4.4625 -5.8775,-8.3375 -0.2255,-0.66 0.024,-1.4945 1.125,-3.7665 3.1335,-6.464 9.685,-8.9964998 14.7495,-5.7015 0.374,0.2435 0.6985,0.4425 0.721,0.4425 0.023,0 0.4295,-0.459 0.904,-1.02 1.3015,-1.539 1.2485,-1.494 1.7145,-1.464 l 0.398,0.0255 0.0415,4.375 m -68.734997,-4.021 c 0.016,0.0345 0.1635,0.1865 0.3275,0.3375 l 0.2985,0.2745 3.908497,0.017 3.909,0.017 v 0.535 0.535 l -0.4765,0.095 c -0.9055,0.181 -0.8155,-0.716 -0.8155,8.127 v 7.7245 l 0.2355,0.325 c 0.2385,0.329 0.9405,0.9635 1.564,1.413 0.3705,0.267 0.3735,0.311 0.061,0.809 l -0.197,0.313 -3.7275,-0.0215 -3.7275,-0.0215 v -0.542 c 0,-0.541 5e-4,-0.5415 0.25,-0.5655 0.3195,-0.031 0.7095,-0.177 0.896,-0.336 0.241,-0.2055 0.223,-15.3455 -0.019,-15.7425 -0.229,-0.3755 -0.8265,-0.948 -1.462497,-1.402 -0.297,-0.212 -0.54,-0.4285 -0.5405,-0.482 -0.001,-0.1085 -0.4195,0.3205 -1.0425,1.068 -0.228,0.274 -0.5135,0.6115 -0.6345,0.75 -0.1205,0.1385 -0.906,1.058 -1.7445,2.0435 -0.839,0.9855 -1.8745,2.1965 -2.3015,2.691 -0.427,0.4945 -0.776,0.9515 -0.776,1.0155 0,0.244 0.749,1.0285 1.725,1.8065 0.779,0.6215 0.798,0.922 0.094,1.4825 -0.648,0.516 -1.303,1.149 -1.8605,1.7975 -1.104501,1.2845 -1.311501,1.3385 -1.961501,0.5105 -0.3955,-0.504 -1.914,-2.0535 -2.0125,-2.0535 -0.0375,0 -0.068,1.157 -0.068,2.571 v 2.5705 l 0.236,0.325 c 0.275,0.379 1.083,1.133 1.534,1.4315 0.3705,0.245 0.3565,0.1755 0.129,0.6445 -0.2405,0.494 0.028,0.4655 -4.149,0.439 l -3.625,-0.023 v -0.542 -0.5415 l 0.292,-0.024 c 0.352,-0.0285 0.7395,-0.1675 0.9375,-0.336 0.1365,-0.116 0.146,-0.5325 0.1475,-6.507 l 0.002,-6.383 1.184,-0.75 1.1845,-0.75 -1.9775,-0.0225 -1.978,-0.022 -0.4235,0.2145 c -0.4115,0.2085 -1.111,0.833 -1.4775,1.319 l -0.1805,0.2395 -0.456,-0.185 c -0.729,-0.296 -0.751,-0.163 0.417,-2.5385 0.995,-2.0235 1.05,-2.162 1.0235,-2.5715 l -0.028,-0.4335 8.0415,-0.0415 c 8.812001,-0.046 8.492001,-0.027 8.906001,-0.5285 0.119,-0.144 0.309,-0.184 0.359,-0.076 m -57.515498,1.167 -5e-4,0.5625 -0.394,0.125 c -0.778,0.2465 -0.868,-0.1865 1.308,6.2915 1.062,3.1625 1.989,5.9375 2.06,6.1665 0.0705,0.2295 0.1595,0.492 0.197,0.5835 0.038,0.0915 0.242,0.6915 0.4545,1.3335 0.6215,1.88 0.974502,2.383 2.155502,3.0735 0.6365,0.372 0.619,0.329 0.3375,0.8335 l -0.216,0.386 -3.846502,-0.0215 -3.8465,-0.0215 v -0.542 -0.5415 l 0.4245,-0.052 c 1.0005,-0.122 1.0595,-0.2485 0.694,-1.4995 -0.3265,-1.116 -0.268,-1.09 -1.474,-0.6585 -0.538,0.192 -1.278,0.457 -1.6445,0.5885 -0.367,0.131 -1.0795,0.387 -1.5835,0.569 -0.504,0.182 -1.254,0.4485 -1.6665,0.593 -0.4125,0.144 -0.825,0.2955 -0.917,0.3355 -0.0915,0.0405 -0.7665,0.2845 -1.5,0.542 -0.733,0.2575 -1.5205,0.5395 -1.75,0.627 -2.042,0.7775 -2.22,0.818 -2.6635,0.606 -0.3825,-0.182 -0.466,0.174 0.918,-3.908 0.667,-1.967 1.6095,-4.7575 2.094,-6.2015 0.485,-1.4435 1.215,-3.6 1.623,-4.7915 0.5045,-1.472 0.7265,-2.2335 0.693,-2.375 -0.0765,-0.325 -0.55,-0.995 -1.196,-1.6915 -0.629,-0.6785 -0.6285,-0.677 -0.319,-1.2045 l 0.159,-0.2705 h 4.95 4.95 l -5e-4,0.5625 m 117.625495,1.408 c -1.634,0.2655 -3.1195,1.432 -4.069,3.196 -0.41,0.762 -0.8895,2.113 -0.8895,2.5075 v 0.2425 h 5.8335 5.8335 v -0.272 c 0,-0.1495 -0.0895,-0.5525 -0.199,-0.8955 -1.0615,-3.3265 -3.6675,-5.2395 -6.5095,-4.7785 m -20.7085,2.0295 -3.5415,0.0415 -0.0235,6.3335 c -0.029,7.842 -0.09,7.5115 1.3835,7.4885 4.5565,-0.0705 8.174,-7.9785 6.126,-13.3925 -0.2065,-0.546 0.0295,-0.518 -3.9445,-0.471 m 39.332,-0.014 c -0.0515,0.0175 -0.082,0.985 -0.082,2.5955 v 2.5675 l 0.3965,0.2545 c 2.5135,1.613 6.1285,1.08 6.8015,-1.0025 0.4685,-1.452 -0.2525,-3.044 -1.715,-3.785 -0.4175,-0.2115 -0.5475,-0.261 -1.233,-0.4685 -0.268,-0.081 -3.9805,-0.225 -4.168,-0.1615 m -88.831998,2.9305 c 0,1.604 0.031,2.9165 0.0685,2.9165 0.038,0 0.29,-0.253 0.56,-0.5625 0.2705,-0.309 0.6845,-0.7685 0.9205,-1.0205 2.455001,-2.6225 3.284501,-3.6465 3.284501,-4.055 v -0.195 h -2.416501 -2.417 v 2.9165 m -51.892497,-1.5645 c -0.0735,0.094 -0.477,1.3175 -0.956,2.898 -0.0905,0.2975 -0.1965,0.6355 -0.236,0.75 -0.039,0.1145 -0.189,0.602 -0.333,1.083 -0.144,0.4815 -0.313,1.025 -0.3755,1.2085 -0.062,0.1835 -0.268,0.8395 -0.457,1.4585 -0.189,0.6185 -0.3785,1.211 -0.4215,1.3165 -0.043,0.105 -0.0785,0.283 -0.0785,0.3955 v 0.2045 l 2.8125,-0.002 c 1.547,-5e-4 2.855,-0.0285 2.9065,-0.0625 0.066,-0.043 -0.017,-0.421 -0.2785,-1.2695 -0.2045,-0.6645 -0.4405,-1.433 -0.5245,-1.708 -0.0835,-0.275 -0.365,-1.194 -0.6255,-2.042 -0.26,-0.848 -0.5415,-1.7665 -0.625,-2.0415 -0.7905,-2.6065 -0.6915,-2.3385 -0.808,-2.1895 m 117.142495,6.9615 c 0,0.583 0.66,2.218 1.2845,3.184 2.7435,4.241 8.4335,3.114 10.0885,-1.9975 0.0815,-0.252 0.181,-0.5445 0.221,-0.65 0.04,-0.105 0.073,-0.321 0.073,-0.479 v -0.288 h -5.8335 -5.8335 v 0.2305"
     stroke="none"
     fill="#ffcc44"
     fill-rule="evenodd"
     style="fill:#ffffff;fill-opacity:1;stroke:#000000;stroke-width:0.5;stroke-opacity:1" />
  <text
     xml:space="preserve"
     style="font-weight:600;font-size:32px;line-height:1.25;font-family:Montserrat;-inkscape-font-specification:'Montserrat, Semi-Bold';font-variant-caps:small-caps"
     x="97.02005"
     y="40.951706"
     id="text12882"><tspan
       id="tspan12880"
       x="97.02005"
       y="40.951706"
       style="font-style:normal;font-variant:normal;font-weight:600;font-stretch:normal;font-size:10.6667px;font-family:Montserrat;-inkscape-font-specification:'Montserrat, Semi-Bold';font-variant-ligatures:normal;font-variant-caps:small-caps;font-variant-numeric:normal;font-variant-east-asian:normal">Varisian Nights</tspan></text>
</svg>
